<?xml version="1.0" standalone="no"?><!DOCTYPE svg PUBLIC "-//W3C//DTD SVG 1.1//EN" "http://www.w3.org/Graphics/SVG/1.1/DTD/svg11.dtd"><svg t="1585839669720" class="icon" viewBox="0 0 1024 1024" version="1.1" xmlns="http://www.w3.org/2000/svg" p-id="10922" xmlns:xlink="http://www.w3.org/1999/xlink" width="128" height="128"><defs><style type="text/css"></style></defs><path d="M512 1024l-36.855328-22.402258C458.523641 991.480593 78.407904 759.508821 78.407904 433.592096a433.592096 433.592096 0 0 1 867.184192 0c0 325.916725-380.115737 557.888497-396.736768 568.005646zM512 144.530699a289.061397 289.061397 0 0 0-289.061397 289.061397c0 193.671136 203.065632 361.326747 289.061397 419.139026 85.995766-57.812279 289.061397-225.46789 289.061397-419.139026a289.061397 289.061397 0 0 0-289.061397-289.061397z" fill="#2c2c2c" p-id="10923"></path><path d="M512 433.592096m-144.530699 0a144.530699 144.530699 0 1 0 289.061398 0 144.530699 144.530699 0 1 0-289.061398 0Z" fill="#2c2c2c" p-id="10924"></path></svg>