<?xml version="1.0" standalone="no"?><!DOCTYPE svg PUBLIC "-//W3C//DTD SVG 1.1//EN" "http://www.w3.org/Graphics/SVG/1.1/DTD/svg11.dtd"><svg t="1588475648731" class="icon" viewBox="0 0 1024 1024" version="1.1" xmlns="http://www.w3.org/2000/svg" p-id="9912" xmlns:xlink="http://www.w3.org/1999/xlink" width="128" height="128"><defs><style type="text/css"></style></defs><path d="M543.56 854.33H130.24c-12.25 0-15.94-9.6-15.94-21.48V133.18c0-11.85 3.69-21.48 15.94-21.48h724.94c12.25 0 15.93 9.6 15.93 21.48v405.24c0 13 10.94 23.61 24.39 23.61s24.4-10.57 24.4-23.61V88.05c0-13.38-11.21-24.23-25-24.23H90.54c-13.85 0-25.05 10.86-25.05 24.23V878c0 13.4 11.2 24.23 25.05 24.23h453c13.69 0 24.79-10.72 24.79-23.94s-11.11-23.95-24.79-23.95zM464.67 185" p-id="9913" fill="#008ADE"></path><path d="M788.06 619.28a170.45 170.45 0 1 0 170.45 170.45 170.45 170.45 0 0 0-170.45-170.45z m0 308.94a138.5 138.5 0 1 1 138.5-138.49 138.5 138.5 0 0 1-138.5 138.49z m66.16-213.63l-90.3 90.22-42.13-42.11-30.11 30.09L763.92 865l120.42-120.34z m0 0M601.68 524.35a16.08 16.08 0 0 0 6.51-8c0.55-1.56 0.66-2.68 0.44-3.12-0.44-0.9 1.79 2.23 4.47-4s-4.91-6.7 1.34-7.16 8.49-0.89 8.49-4-0.45-5.37 5.36-6.7 7.6-2.67 8-5.81 8-6.69 4.47-9.81-5.81-0.46-5.81-5.37a8.59 8.59 0 0 0-3.58-7.16c-2.29-1.65-4-1.79-1.79-7.16s0.9-6.69 0-11.61-0.88-2.68 3.13-7.59 5.38-9.82 1.8-14.29 0-3.58 2.23-9.38 0.44-6.26-1.35-9 1.35 0 1.79-6.7-3.58-5.8-3.58-8.49 7.59-3.58 2.23-6.7-7.59-1.33-7.16-4.91-0.89-8.48-0.89-8.48l-2.68-0.9s1.79 0.9 2.24-4-4.92-2.23-0.9-6.25 5.37-3.13 5.37-5.37-4-4.92-4-4.92a7.31 7.31 0 0 1-3.13-6.69c0.45-4.47 0-4.47-3.12-6.26a7.35 7.35 0 0 1-3.58-4.91c-0.43-2.08 3.12-8 5.37-12.06s1.33-6.7 10.27-5.81 21 2.23 27.24 6.26 16.52 6.25 25.9-1.34 9-14.32 9-14.32 7.16-2.68 6.25-7.59a29.22 29.22 0 0 0-1.79-6.7s0.44-11.16-5.37-19.2-20.1-23.57-29.47-30.26-16.55-14.28-15.66-19.59-4.92-19.65-20.54-18.76-26.8 0.44-34.38-0.43-19.65 4.92-26.8 9-18.31 3.13-19.2 7.16a42.85 42.85 0 0 1-3.13 8.35 80.17 80.17 0 0 0-21.47 3.48c-11 3.48-19.16 6.38-27.28 9.29s-20.88 4-16.83 7.54 12.76 5.22 27.27 8.71l16.84 4.05s-16.94 2.3-12.91 6.3 1.79 2.67-2.24 6.25 0 2.68-0.89 6.7-3.12 2.68-2.23 5.8 3.58 4 0 4.47-6.26-6.25-9.38-1.34-5.37 11.16-6.25 7.16 0.45-9.82-3.58-6.7-1.79 5.81-6.25 6.7-7.16-2.68-11.61 1.79-6.26 5.8-10.27 3.13-2.24-5.81-6.25-2.24-6.26 5.8-8 2.68 0.44-7.59-4.92-4-6.7 6.7-10.27 1.34 0-9.38-7.16-5.37a16.07 16.07 0 0 1-13.4 1.34s0-6.26-5.37-2.24-7.59 2.68-8.95 0.45 3.13-6.25-2.23-2.23-3.58 8.49-5.37 4-3.13-7.16-7.59-3.13 0.44 6.7-4.47 3.13-5.81-0.45-9.83 1.34-1.33-1.34-7.16-0.9-6.69-1.78-11.16 1.79-4.46 2.25-8.95 0.9-4-3.57-11.17-0.44-9.82 2.68-13.84 2.68-4-5.81-8.49 0 2.24 6.25-12.52 8.48-12.53-1.34-16.08 4-3.58 4.46-8.95 8.49-4-0.45-7.15 5.79-4.47 3.58-8.95 10.74-1.36 5.75-7.2 9.75-4 1.79-6.24 8-5.37 6.7-8.49 13-0.89 8-4.47 15.19-4 6.25-3.12 14.74 4.46 8.94 0.89 14.73-1.79 16.1-0.45 19.21 3.13 10.73 3.58 19.64 0.45 11.61 0.45 11.61l2.68-1.34a95.54 95.54 0 0 1-1.35 22.78c-2.23 11.61-4.46 21.88-4.46 21.88l4.91-2.68s-1.33 2.68-1.33 11.16-2.52 11.16-2.52 18.75 1.34 7.6 1.34 7.6l2.68-3.13s-0.89 6.25-1.34 10.74-0.89 8-0.89 8l4-4.92s0.89 5.81 3.58 5.81 4-2.68 5.37-0.44 2.23 3.57 2.23 3.57 1.79 15.66 5.39 37.1 8.48 39.3 8.48 51.36a98 98 0 0 0 4.92 31.22c3.13 9.82 4.47 21.88 17 22.77s19.65 0.9 19.65 0.9l-0.44-2.69 4-0.44s-4.47-7.16-8.05-12.06-2.67-6.7-4.46-10.27-4.91-5.37-9.38-19.2-10.27-21.88-9.36-43.77 4-50 4-50a9.86 9.86 0 0 1 6.7 4.92c2.68 4.47 3.58 3.12 3.58 3.12l1.34-4.91 4 6.7 3.13-6.7 2.67 4.91 1.34-20.54s4.47 10.74 7.16 6.7 0.45-12.5 0.89-15.18 4-17 4-20.55-2.68-8-2.68-13.84v-7.16s7.16-3.58 8.49 3.58a65.92 65.92 0 0 1 1.34 9.37l3.13-9.37 1.78 7.59 2.68-3.13 1.34 9.38 3.12-1.34 1.34 7.59 4.91-2.23s3.14-0.89 3.14 5.36 0.88 9.38 0 14.32-0.45 16.1 1.33 25.9 10.27 32.15 10.74 52.7 0.44 30.36-0.45 33.49 2.68 3.58 4.91 6.7 3.58 6.25 4.47 13.39 6.25 9.83 17.86 10.74 12.51-1.33 12.51-1.33 5.8 1.35 3.58-3.12-5.37-6.7-5.8-10.74-4.92-10.26-7.16-15.18-12.53-29-14.32-54-2.23-47.34 5.81-60.73 8-13.85 8-13.85h9.38l7.16 12.53L397 527.1l5.8 4.92a6.06 6.06 0 0 0 3.13-4c0.89-3.13-0.89-3.58 6.25-2.23s5.37 2.67 12.53 1.79 4-5.37 8.48-2.24 8 1.79 10.74 2.24-3.58 3.58 5.37 4.9 9.3 3.13 9.3 3.13 7.15 22.78 9.82 36.62 6.7 18.31 9.83 49.57 0 50.46-3.13 56.72-4 14.31-3.12 21.43 3.12 16.52 3.12 20.54 3.13 11.17 19.2 13 18.31 0.44 18.31 0.44-1.34-10.74-4-17.42-0.89-8.48-4.47-15.64-5.8-21.88-6.7-30.82 0.9-33.93 2.68-40.63 8-17 6.25-28.59-6.25-20.08-7.16-28.57 0.9-33.49 0.9-33.49 4 0 4.91-3.58 0-6.25 1.34-8.48 4.47-6.26 4.47-6.26l8.5-2.7h4.91s-0.89 49.57-0.45 64.31a313.72 313.72 0 0 0 3.58 38c1.79 12.51 3.58 29.92-0.44 42.87s-3.58 19.2 0.89 25.9 4 11.16 6.7 18.3 9.82 10.74 21.88 11.17 14.74-0.44 14.74-0.44l4-3.13s-5.81-12.06-11.16-18.31-9-12.05-10.74-20.1-4.91-17.86-5.37-23.66-2.68-26.36-1.34-35.28 4.91-18.76 3.58-29.48-2.23-25.45 0.89-33.93 17-23.23 17-23.23a34.05 34.05 0 0 0 29.51-3.58z m0 0" p-id="9914" fill="#008ADE"></path></svg>
