<?xml version="1.0" standalone="no"?><!DOCTYPE svg PUBLIC "-//W3C//DTD SVG 1.1//EN" "http://www.w3.org/Graphics/SVG/1.1/DTD/svg11.dtd"><svg t="1587784281321" class="icon" viewBox="0 0 1024 1024" version="1.1" xmlns="http://www.w3.org/2000/svg" p-id="20247" xmlns:xlink="http://www.w3.org/1999/xlink" width="128" height="128"><defs><style type="text/css"></style></defs><path d="M138 588h40v314.7h-40zM282.7 588h40v314.7h-40zM427.5 588h40v314.7h-40zM572.3 588h40v314.7h-40zM717.1 588h40v314.7h-40zM861.9 588h40v314.7h-40z" fill="#707070" p-id="20248"></path><path d="M90.4 725.3h859.1v40H90.4z" fill="#707070" p-id="20249"></path><path d="M765.7 562.8h-40c0-23.2 8.1-35.1 14.6-44.7 6.6-9.7 12.8-18.8 12.8-48.6 0-11 9-20 20-20h103.7c7.8 0 14.6-4.1 18.2-11.1 3.5-6.7 3.1-14.3-1-20.6l-93.2-108.1c-30.6-33-47.9-24-53.6-21l-63.8 33.4c-0.5 0.3-1 0.5-1.5 0.7-39.7 16.8-81.6 25.3-124.7 25.3h-205c-61.4 0-111.4 50-111.4 111.4v103.3h-40V459.4c0-83.5 67.9-151.4 151.4-151.4h205.2c37.4 0 73.9-7.3 108.4-21.8l63-33c18.3-9.6 38.4-10.5 58-2.6 14.7 5.9 29.4 16.7 43.7 32.2 0.1 0.2 0.3 0.3 0.4 0.5L925 392.5l1.2 1.5c13.1 18.5 14.7 42.6 4.3 62.7-10.4 20.1-31 32.7-53.7 32.7h-84.7c-2.9 27.9-11.9 41-18.7 51.1-5.2 7.9-7.7 11.4-7.7 22.3z" fill="#A25C11" p-id="20250"></path><path d="M178 457.9h-40V340c0-83.5 67.9-151.4 151.4-151.4h256.4c37.4 0 73.9-7.3 108.4-21.8l63-33c18.3-9.6 38.4-10.5 58-2.6 14.7 5.9 29.4 16.7 43.7 32.2 0.1 0.2 0.3 0.3 0.4 0.5l94.1 109.2-30.3 26.1-93.9-108.9c-30.6-33-47.9-24-53.6-21L672 202.7c-0.5 0.3-1 0.5-1.5 0.7-39.7 16.8-81.6 25.3-124.7 25.3H289.3c-61.4 0-111.4 50-111.4 111.4v117.8z" fill="#333333" p-id="20251"></path></svg>
