<?xml version="1.0" standalone="no"?><!DOCTYPE svg PUBLIC "-//W3C//DTD SVG 1.1//EN" "http://www.w3.org/Graphics/SVG/1.1/DTD/svg11.dtd"><svg t="1587819766802" class="icon" viewBox="0 0 1024 1024" version="1.1" xmlns="http://www.w3.org/2000/svg" p-id="45938" xmlns:xlink="http://www.w3.org/1999/xlink" width="128" height="128"><defs><style type="text/css"></style></defs><path d="M700.4 615.5c-88.3 0-160.1-71.8-160.1-160.1s71.8-160.1 160.1-160.1c61.2 0 117.8 35.6 144.4 90.7 6.8 14.1 0.9 31-13.2 37.7-14.1 6.8-31 0.9-37.7-13.2-17.1-35.7-53.8-58.8-93.4-58.8-57.1 0-103.6 46.5-103.6 103.6s46.5 103.6 103.6 103.6c21.2 0 41.6-6.4 59-18.5 12.9-8.9 30.4-5.7 39.3 7 8.9 12.9 5.7 30.4-7 39.3-27.1 19-58.6 28.8-91.4 28.8z" p-id="45939"></path><path d="M756.8 803.9H267.1c-77.9 0-141.3-63.4-141.3-141.3 0-55.8 33.4-105.9 82.6-128.4-4.8-19.8-7.3-39.8-7.3-59.9 0-140.2 114-254.3 254.3-254.3 81.1 0 155.6 37.6 204.1 103 4.8 6.6 6.7 14.8 4.9 22.9-1.8 8-6.8 14.8-14 18.8-33.2 18.2-53.7 53.1-53.7 90.9 0 57.1 46.5 103.6 103.6 103.6 25.2 0 49.3-9.2 68.3-25.9 7.3-6.4 17-8.7 26.4-6 60.6 17.1 103 72.8 103 135.6 0.1 77.7-63.3 141-141.2 141zM455.5 276.5c-109.1 0-197.7 88.8-197.7 197.7 0 23 4.2 45.9 12.3 68.1 2.9 7.7 2.2 16.3-1.8 23.4-4 7.1-10.9 12.3-18.9 14-38.8 8.2-67 43.1-67 82.8 0 46.7 38 84.8 84.8 84.8h489.7c46.7 0 84.8-38 84.8-84.8 0-33-19.7-62.7-49.1-76.4-26.9 19-59 29.3-92.2 29.3-88.3 0-160.1-71.8-160.1-160.1 0-46.8 20.5-90.7 55-120.8-37-37.1-86.5-58-139.8-58z" p-id="45940"></path></svg>