<?xml version="1.0" standalone="no"?><!DOCTYPE svg PUBLIC "-//W3C//DTD SVG 1.1//EN" "http://www.w3.org/Graphics/SVG/1.1/DTD/svg11.dtd"><svg t="1587785199856" class="icon" viewBox="0 0 1024 1024" version="1.1" xmlns="http://www.w3.org/2000/svg" p-id="43096" xmlns:xlink="http://www.w3.org/1999/xlink" width="128" height="128"><defs><style type="text/css"></style></defs><path d="M911.001925 116.071575c-67.527976-67.893296-176.929642-67.867714-244.419755 0-6.779404 6.816243-12.867052 14.06432-18.284435 21.645996-35.751249-11.347442-73.404824-17.259082-111.970164-17.259082-98.92301 0-191.924147 38.736233-261.860986 109.062951-13.525038 13.599739-25.7822 27.998681-36.772508 43.047422-46.425356-13.69286-98.643648-2.130524-135.263683 34.685987-53.393048 53.67855-53.393048 140.704602 0.025583 194.410781 18.987447 19.09387 42.173518 31.385824 66.570161 36.893258 9.727549 79.529311 44.865837 156.4891 105.439424 217.417775 61.727876 62.073754 141.43729 99.504248 227.324402 107.442034 5.429663 21.322631 16.436344 41.507346 33.039487 58.202587 49.332569 49.620118 129.317251 49.620118 178.635493 0 32.911574-33.085536 43.858904-79.887468 32.855292-122.107035 18.390859-12.777001 35.776831-27.304879 51.919487-43.537586 100.911294-101.475136 131.2513-247.437485 91.061972-375.684358 7.602142-5.476735 14.866592-11.634991 21.697161-18.500353C978.453153 293.977451 978.505341 183.964872 911.001925 116.071575zM779.342326 737.183645c-13.402241 13.473873-27.729551 25.677822-42.816155 36.594453-5.848195-11.437493-13.529131-22.171975-23.059182-31.753191-49.344848-49.617048-129.316228-49.617048-178.647773-0.025583-25.777083 25.920346-38.0762 60.261479-36.907585 94.222965-77.248362-8.591679-148.794861-42.985-204.544583-99.03762-54.570873-54.895261-86.915535-123.799584-97.043197-195.301058 35.910884 0.730641 72.058153-12.674671 99.465362-40.215934 53.393048-53.680597 53.393048-140.706649 0-194.385199-9.873882-9.930163-20.883633-18.017352-32.604582-24.275893 9.169847-12.063757 19.219737-23.663956 30.18344-34.688034 64.899102-65.263399 151.184281-101.201913 242.961544-101.201913 33.605376 0 66.466808 4.837168 97.820909 14.146185-32.339546 65.053622-21.551852 146.265248 32.43369 200.531176 53.92619 54.218856 134.547369 65.101717 199.216227 32.736589C900.236743 512.098237 871.421464 644.585691 779.342326 737.183645z" p-id="43097" fill="#3f81c1"></path></svg>
