<?xml version="1.0" standalone="no"?><!DOCTYPE svg PUBLIC "-//W3C//DTD SVG 1.1//EN" "http://www.w3.org/Graphics/SVG/1.1/DTD/svg11.dtd"><svg t="1586095015928" class="icon" viewBox="0 0 1024 1024" version="1.1" xmlns="http://www.w3.org/2000/svg" p-id="3457" xmlns:xlink="http://www.w3.org/1999/xlink" width="128" height="128"><defs><style type="text/css"></style></defs><path d="M919.35108 693.764763" p-id="3458"></path><path d="M705.867918 411.43356" p-id="3459"></path><path d="M933.432797 657.941883 741.689774 657.941883 741.689774 129.149429l-0.103354 0c129.517819 78.480422 216.071104 220.835617 216.071104 383.278313C957.658548 563.340295 949.27153 612.285031 933.432797 657.941883L933.432797 657.941883z" p-id="3460"></path><path d="M919.35108 693.764763c-69.469188 157.058059-226.733954 266.494517-409.41867 266.494517-68.279083 0-132.781142-15.21861-190.550871-42.448788l0 0L319.381539 693.764763 919.35108 693.764763" p-id="3461"></path><path d="M283.403117 502.256078l0 396.503523-0.154519 0c-87.277786-51.352575-155.505703-131.383306-192.053084-226.943732l0 0L283.403117 502.256078z" p-id="3462"></path><path d="M706.901457 417.201937 347.542926 94.956675l0-0.075725c50.314942-19.566638 105.188714-30.259164 162.389484-30.259164 69.833485 0 136.922463 16.023952 195.935508 44.546565l0 308.032562L706.901457 417.200914z" p-id="3463"></path><path d="M311.513338 110.851691l179.213661 160.682609-0.102331-0.053212L78.978261 634.750695l0 0c-11.025101-39.031968-16.927531-79.898725-16.927531-122.322953 0-176.058808 101.720729-328.45673 249.357208-401.602657L311.513338 110.851691z" p-id="3464"></path></svg>