<?xml version="1.0" standalone="no"?><!DOCTYPE svg PUBLIC "-//W3C//DTD SVG 1.1//EN" "http://www.w3.org/Graphics/SVG/1.1/DTD/svg11.dtd"><svg t="1587784528745" class="icon" viewBox="0 0 1024 1024" version="1.1" xmlns="http://www.w3.org/2000/svg" p-id="26152" xmlns:xlink="http://www.w3.org/1999/xlink" width="128" height="128"><defs><style type="text/css"></style></defs><path d="M856.8 369.4V190.7c0-15.7-12.7-28.4-28.4-28.4h-53.1c-15.7 0-28.4 12.7-28.4 28.4v68.7L615.1 127.6l-82.3-82.3c-11.1-11.1-29.1-11.1-40.2 0l-483 483c-11.1 11.1-11.1 29.1 0 40.2l62.2 62.2c11.1 11.1 29.1 11.1 40.2 0l380.6-380.6c11.1-11.1 29.1-11.1 40.2 0l380.7 380.7c11.1 11.1 29.1 11.1 40.2 0l62.2-62.2c11.1-11.1 11.1-29.1 0-40.2l-159.1-159z" fill="#1195db" p-id="26153"></path><path d="M534.7 334.9c-11.1-11.1-29.1-11.1-40.2 0L354.9 474.4H351v3.9L177.3 652c-5.3 5.3-8.3 12.6-8.3 20.1v249.8l1.2-1.4v34.6c0 15.7 12.7 28.4 28.4 28.4H406c15.7 0 28.4-12.7 28.4-28.4V700.8c0-15.7 12.7-28.4 28.4-28.4h104.5c15.7 0 28.4 12.7 28.4 28.4V955c0 15.7 12.7 28.4 28.4 28.4h207.4c15.7 0 28.4-12.7 28.4-28.4V672.4s-0.2-5.2-1.6-9.7c-1.4-4.5-3.1-7.2-3.1-7.2L534.7 334.9z" fill="#1195db" p-id="26154"></path></svg>