<?xml version="1.0" standalone="no"?><!DOCTYPE svg PUBLIC "-//W3C//DTD SVG 1.1//EN" "http://www.w3.org/Graphics/SVG/1.1/DTD/svg11.dtd"><svg t="1586958819170" class="icon" viewBox="0 0 1024 1024" version="1.1" xmlns="http://www.w3.org/2000/svg" p-id="5016" xmlns:xlink="http://www.w3.org/1999/xlink" width="128" height="128"><defs><style type="text/css"></style></defs><path d="M800 544v-64h128v64h-128z m-288 256A288 288 0 1 1 800 512 288 288 0 0 1 512 800z m0-512A224 224 0 1 0 736 512 224 224 0 0 0 512 288z m0 320A96 96 0 1 1 608 512 96 96 0 0 1 512 608z m32 320h-64v-128h64v128z m-448-384v-64h128v64h-128z m384-448h64v128h-64v-128z" fill="#333333" p-id="5017"></path></svg>