<?xml version="1.0" standalone="no"?><!DOCTYPE svg PUBLIC "-//W3C//DTD SVG 1.1//EN" "http://www.w3.org/Graphics/SVG/1.1/DTD/svg11.dtd"><svg t="1586958451297" class="icon" viewBox="0 0 1024 1024" version="1.1" xmlns="http://www.w3.org/2000/svg" p-id="4876" xmlns:xlink="http://www.w3.org/1999/xlink" width="128" height="128"><defs><style type="text/css"></style></defs><path d="M828.817646 587.451436c-8.78406 0-17.568121-3.352351-24.273847-10.058077L461.219453 234.069013c-13.411451-13.402241-13.411451-35.145451 0-48.547692 13.394055-13.411451 35.153638-13.411451 48.547693 0l343.324346 343.324346c13.411451 13.402241 13.411451 35.145451 0 48.547692-6.704702 6.704702-15.488763 10.058077-24.273846 10.058077z" fill="#444444" p-id="4877"></path><path d="M146.679687 948.167894c-0.695848 0-1.38351-0.008186-2.078335-0.025582-20.401656-0.553609-38.817074-9.102309-53.241598-24.735358-64.222697-69.570495 0.737804-142.761448 80.986499-226.798423-0.033769-0.167822-0.075725-0.326435-0.10847-0.494256-6.395664-28.305673-19.705807-87.188758 32.655747-139.550313 78.45484-78.463026 336.291163-329.108576 449.782983-431.250908v-0.008187c88.898703-79.988776 191.862749-52.236712 249.898537 7.375991 59.679217 61.271482 81.07041 164.395164 6.537903 242.942102-87.004563 91.672886-267.031752 261.776052-374.596583 363.40673-28.011984 26.469861-51.490721 48.640814-67.700915 64.12139-70.341045 67.11456-127.47223 45.715181-155.225317 32.823569-3.872191 3.746324-7.795547 7.552-11.726066 11.391445-50.980091 49.570999-103.660918 100.8018-155.184385 100.8018z m553.927925-771.82563c-112.661919 101.412714-369.081986 350.692151-447.167412 428.76939-23.703865 23.712051-20.669762 47.38317-14.232143 75.864852 3.671623 16.243963 8.239662 36.461423-7.384178 52.789297-84.833107 88.614224-109.7281 121.705899-90.004896 143.071509 2.405793 2.606361 3.486404 2.631944 4.635577 2.665713 22.99983 0.963954 73.953316-48.707328 107.532085-81.363076 8.633634-8.390088 17.141402-16.671705 25.447579-24.499997 21.147646-19.931958 46.661739-7.761778 58.916854-1.911536 20.971637 9.999748 42.639123 20.334117 83.056648-18.247596 16.269545-15.531741 39.83117-37.793768 67.952648-64.364937 107.054201-101.144608 286.235117-270.443455 371.931894-360.758413 46.805002-49.311079 29.739325-111.160729-5.900384-147.765415-34.349319-35.279504-95.504144-57.5753-154.781202-4.241605v-0.008186zM174.213787 705.762005h0.176009-0.176009z" fill="#444444" p-id="4878"></path><path d="M423.405219 698.732915l-35.122938-37.662785c-12.932544-13.867846-12.174274-35.592636 1.694595-48.525179l91.820242-85.621053c13.867846-12.93152 35.592636-12.172227 48.524156 1.695618l35.124985 37.669948-142.04104 132.443451z" fill="#00D8A0" p-id="4879"></path></svg>