<?xml version="1.0" standalone="no"?><!DOCTYPE svg PUBLIC "-//W3C//DTD SVG 1.1//EN" "http://www.w3.org/Graphics/SVG/1.1/DTD/svg11.dtd"><svg t="1588068816732" class="icon" viewBox="0 0 1024 1024" version="1.1" xmlns="http://www.w3.org/2000/svg" p-id="6024" xmlns:xlink="http://www.w3.org/1999/xlink" width="128" height="128"><defs><style type="text/css"></style></defs><path d="M502.751044 964.678621C324.862234 964.678621 181.25977 902.525352 181.25977 825.365186c0-49.293241 60.011108-94.304515 152.173462-117.877701 8.573352 12.860028 17.144349 23.57554 25.720055 36.433214-81.449195 15.002189-135.029113 47.153434-135.029112 81.446841 0 53.582271 124.311246 96.44903 278.626869 96.44903s278.629223-42.866759 278.629223-96.44903c0-34.291053-53.582271-66.444653-135.026759-81.446841 8.573352-10.717867 17.144349-23.573186 25.720055-36.433214 90.015485 23.57554 152.175816 68.58446 152.175816 117.877701 0 77.160166-143.602464 139.313434-321.498335 139.313435z m0-150.028947S202.690795 529.591614 202.690795 364.558124 337.7152 64.497876 502.751044 64.497876s300.060248 135.026759 300.060248 300.060248c0 165.035844-300.060248 450.091549-300.060248 450.09155z m0-578.687118c-70.724267 0-128.595568 57.866593-128.595568 128.595568 0 70.731329 57.868947 128.595568 128.595568 128.595568 70.728975 0 128.600276-57.864239 128.600276-128.595568 0-70.728975-57.868947-128.595568-128.600276-128.595568z m0 0" fill="#17abe3" p-id="6025"></path></svg>
