<?xml version="1.0" standalone="no"?><!DOCTYPE svg PUBLIC "-//W3C//DTD SVG 1.1//EN" "http://www.w3.org/Graphics/SVG/1.1/DTD/svg11.dtd"><svg t="1585557946853" class="icon" viewBox="0 0 1024 1024" version="1.1" xmlns="http://www.w3.org/2000/svg" p-id="4467" xmlns:xlink="http://www.w3.org/1999/xlink" width="128" height="128"><defs><style type="text/css"></style></defs><path d="M596.48 332.288l-368.64-2.048c-14.336 0-25.6-11.776-25.6-25.6 0-14.336 11.776-25.6 25.6-25.6l368.64 2.048c14.336 0 25.6 11.776 25.6 25.6 0 14.336-11.776 25.6-25.6 25.6zM601.6 521.728l-368.64-2.048c-14.336 0-25.6-11.776-25.6-25.6 0-14.336 11.776-25.6 25.6-25.6l368.64 2.048c14.336 0 25.6 11.776 25.6 25.6 0 14.336-11.776 25.6-25.6 25.6zM471.04 711.168l-235.52-2.048c-14.336 0-25.6-11.776-25.6-25.6s11.776-25.6 25.6-25.6l235.52 2.048c14.336 0 25.6 11.776 25.6 25.6 0 14.336-11.776 25.6-25.6 25.6zM788.992 939.52c-78.848 0-143.36-64.512-143.36-143.36s64.512-143.36 143.36-143.36 143.36 64.512 143.36 143.36-64.512 143.36-143.36 143.36z m0-235.52c-50.688 0-92.16 41.472-92.16 92.16s41.472 92.16 92.16 92.16 92.16-41.472 92.16-92.16-41.472-92.16-92.16-92.16z" p-id="4468"></path><path d="M785.92 683.52c-14.336 0-25.6-11.264-25.6-25.6v-40.96c0-14.336 11.264-25.6 25.6-25.6s25.6 11.264 25.6 25.6v40.96c0 14.336-11.264 25.6-25.6 25.6zM691.712 726.016c-6.656 0-13.312-2.56-18.432-7.68l-29.696-30.72c-9.728-10.24-9.728-26.624 0.512-36.352 10.24-9.728 26.624-9.728 36.352 0.512l29.696 30.72c9.728 10.24 9.728 26.624-0.512 36.352-5.12 4.608-11.264 7.168-17.92 7.168zM652.8 821.76h-40.96c-14.336 0-25.6-11.264-25.6-25.6s11.264-25.6 25.6-25.6h40.96c14.336 0 25.6 11.264 25.6 25.6s-11.264 25.6-25.6 25.6zM663.552 948.736c-6.656 0-13.312-2.56-17.92-7.68-10.24-10.24-10.24-26.112 0-36.352l30.208-30.208c10.24-10.24 26.112-10.24 36.352 0s10.24 26.112 0 36.352l-30.208 30.208c-5.12 5.12-11.776 7.68-18.432 7.68zM791.04 1000.96c-14.336 0-25.6-11.264-25.6-25.6v-46.08c0-14.336 11.264-25.6 25.6-25.6s25.6 11.264 25.6 25.6v46.08c0 14.336-11.264 25.6-25.6 25.6zM916.48 947.712c-6.656 0-13.312-2.56-17.92-7.68l-30.208-30.208c-10.24-10.24-10.24-26.112 0-36.352s26.112-10.24 36.352 0l30.208 30.208c10.24 10.24 10.24 26.112 0 36.352-5.12 5.12-11.776 7.68-18.432 7.68zM970.24 821.76h-46.08c-14.336 0-25.6-11.264-25.6-25.6s11.264-25.6 25.6-25.6h46.08c14.336 0 25.6 11.264 25.6 25.6s-11.264 25.6-25.6 25.6zM884.736 724.992c-6.656 0-13.312-2.56-17.92-7.68-10.24-10.24-10.24-26.112 0-36.352l30.208-30.208c10.24-10.24 26.112-10.24 36.352 0s10.24 26.112 0 36.352l-30.208 30.208c-5.12 5.12-11.776 7.68-18.432 7.68zM317.44 1005.056H38.4c-14.336 0-25.6-11.264-25.6-25.6V35.84c0-14.336 11.264-25.6 25.6-25.6h733.696c14.336 0 25.6 11.264 25.6 25.6v276.992c0 14.336-11.264 25.6-25.6 25.6s-25.6-11.264-25.6-25.6V61.44H64v892.416H317.44c14.336 0 25.6 11.264 25.6 25.6s-11.264 25.6-25.6 25.6z" p-id="4469"></path></svg>