<?xml version="1.0" standalone="no"?><!DOCTYPE svg PUBLIC "-//W3C//DTD SVG 1.1//EN" "http://www.w3.org/Graphics/SVG/1.1/DTD/svg11.dtd"><svg t="1585558722393" class="icon" viewBox="0 0 1026 1024" version="1.1" xmlns="http://www.w3.org/2000/svg" p-id="5325" xmlns:xlink="http://www.w3.org/1999/xlink" width="128.25" height="128"><defs><style type="text/css"></style></defs><path d="M992 896h-83.2V518.4h83.2c12.8 0 25.6-6.4 32-19.2s0-25.6-12.8-38.4L531.2 70.4c-12.8-12.8-25.6-12.8-38.4 0L12.8 460.8c-12.8 12.8-12.8 25.6-12.8 38.4 0 12.8 19.2 19.2 32 19.2h102.4V896H32c-19.2 0-32 19.2-32 32s12.8 32 32 32h960c19.2 0 32-12.8 32-32s-12.8-32-32-32z m-147.2 0h-172.8V518.4h172.8V896zM608 518.4V896H435.2V518.4h172.8zM512 134.4l390.4 320H121.6l390.4-320z m-313.6 384h172.8V896H198.4V518.4z" fill="" p-id="5326"></path></svg>