<?xml version="1.0" standalone="no"?><!DOCTYPE svg PUBLIC "-//W3C//DTD SVG 1.1//EN" "http://www.w3.org/Graphics/SVG/1.1/DTD/svg11.dtd"><svg t="1587366010978" class="icon" viewBox="0 0 1024 1024" version="1.1" xmlns="http://www.w3.org/2000/svg" p-id="1479" xmlns:xlink="http://www.w3.org/1999/xlink" width="128" height="128"><defs><style type="text/css"></style></defs><path d="M196.039778 402.57608c-5.826062 0-11.601053-2.528499-15.559531-7.404246-6.972649-8.586882-5.664839-21.199335 2.922043-28.171984l238.85853-193.958397c8.586882-6.972649 21.199335-5.664839 28.171984 2.922043 6.972649 8.586882 5.663838 21.199335-2.922044 28.171984l-238.858529 193.958398a19.947603 19.947603 0 0 1-12.612453 4.482202zM679.952411 402.57608c-5.825061 0-11.600052-2.528499-15.55853-7.404246-6.972649-8.586882-5.663838-21.199335 2.922043-28.171984l238.85853-193.957396c8.586882-6.972649 21.199335-5.663838 28.171984 2.922044s5.663838 21.199335-2.922043 28.171984L692.566866 398.093878a19.948605 19.948605 0 0 1-12.614455 4.482202z" p-id="1480"></path><path d="M674.575971 398.263112a19.945601 19.945601 0 0 1-12.536348-4.419115L425.943917 204.037345c-8.62093-6.93059-9.990825-19.537035-3.060235-28.157965 6.929589-8.619928 19.537035-9.990825 28.157964-3.060235L687.137353 362.625798c8.619928 6.929589 9.990825 19.537035 3.060235 28.157964-3.956475 4.920809-9.763511 7.47935-15.621617 7.47935zM951.392026 171.689582a20.117839 20.117839 0 0 1-3.587965-0.323447l-182.544603-33.023698c-10.885063-1.968724-18.112063-12.389144-16.143339-23.273205 1.968724-10.884061 12.388143-18.112063 23.273205-16.142338l182.545605 33.023698c10.884061 1.968724 18.111062 12.389144 16.142337 23.273205-1.751424 9.678393-10.185094 16.465785-19.68524 16.465785z" p-id="1481"></path><path d="M959.917824 375.746955c-10.757887 0-19.651193-8.540819-20.004682-19.37381l-5.965255-182.5426c-0.3615-11.055298 8.307496-20.310105 19.362794-20.671605 11.047287-0.362502 20.310105 8.307496 20.670604 19.362794l5.965254 182.5426c0.3615 11.055298-8.307496 20.310105-19.362794 20.671605-0.222308 0.00701-0.444615 0.011015-0.665921 0.011016zM951.343959 989.258926H99.094626c-16.564922 0-30.041571-13.476649-30.041571-30.041572V46.113812c0-11.060305 8.966408-20.027714 20.027714-20.027714s20.027714 8.967409 20.027714 20.027714v903.089685H951.342958c11.061307 0 20.027714 8.966408 20.027714 20.027715s-8.966408 20.027714-20.026713 20.027714z" p-id="1482"></path><path d="M207.545699 867.178993c-11.061307 0-20.027714-8.966408-20.027714-20.027714v-225.151563c0-11.060305 8.966408-20.027714 20.027714-20.027714 11.060305 0 20.027714 8.967409 20.027715 20.027714v225.150561c0 11.061307-8.967409 20.028716-20.027715 20.028716zM430.54228 867.178993c-11.061307 0-20.027714-8.966408-20.027714-20.027714V507.465225c0-11.060305 8.966408-20.027714 20.027714-20.027714s20.027714 8.967409 20.027714 20.027714v339.685052c0 11.061307-8.966408 20.028716-20.027714 20.028716zM653.53886 867.178993c-11.060305 0-20.027714-8.966408-20.027714-20.027714V671.633399c0-11.061307 8.967409-20.027714 20.027714-20.027714 11.061307 0 20.027714 8.966408 20.027714 20.027714v175.516878c0 11.061307-8.965406 20.028716-20.027714 20.028716zM876.53544 867.178993c-11.060305 0-20.027714-8.966408-20.027714-20.027714V507.465225c0-11.060305 8.967409-20.027714 20.027714-20.027714 11.061307 0 20.027714 8.967409 20.027714 20.027714v339.685052c0 11.061307-8.966408 20.028716-20.027714 20.028716z" p-id="1483"></path></svg>