<?xml version="1.0" standalone="no"?><!DOCTYPE svg PUBLIC "-//W3C//DTD SVG 1.1//EN" "http://www.w3.org/Graphics/SVG/1.1/DTD/svg11.dtd"><svg t="1590148657643" class="icon" viewBox="0 0 1024 1024" version="1.1" xmlns="http://www.w3.org/2000/svg" p-id="3052" xmlns:xlink="http://www.w3.org/1999/xlink" width="128" height="128"><defs><style type="text/css"></style></defs><path d="M848.4864 204.8H329.1648c-5.3248 0-10.6496 0.6144-15.872 1.792-39.424 9.0624-64.3072 49.4592-55.552 90.1632l77.6192 360.8576c7.424 34.56 37.12 59.1872 71.3728 59.1872h364.1344c34.304 0 64-24.576 71.3728-59.1872l77.6192-360.8576c1.1776-5.376 1.7408-10.8544 1.7408-16.384C921.6 238.6432 888.832 204.8 848.4864 204.8zM328.9088 277.9648h519.5776c0.8192 0 1.5872 0.4608 2.048 1.1776l0.256 1.536-77.6192 361.0624a2.3552 2.3552 0 0 1-2.304 1.8944H406.7328a2.3552 2.3552 0 0 1-2.304-1.8944L326.8608 280.9344a2.4064 2.4064 0 0 1 0.768-2.3552l1.28-0.6144z" fill="#333333" p-id="3053"></path><path d="M242.8416 150.016c3.2768 0 6.5024 0.5632 9.5232 1.6896a28.2624 28.2624 0 0 1 7.2192 1.7408c19.0464 7.3728 34.3552 24.7808 41.984 49.1008l2.2016 8.3456 33.792 147.6096c3.6864 20.992-7.424 41.472-24.7296 45.9264-15.872 3.9936-31.488-6.9632-36.7616-24.9344l-1.1776-5.12-33.3824-145.2544a2.4576 2.4576 0 0 0-1.1776-1.6384h-82.944c-17.7152 0-32.0512-17.3568-32.0512-38.7584 0-19.6096 12.032-35.84 27.648-38.4l4.4032-0.3584h85.4528z" fill="#333333" p-id="3054"></path><path d="M460.8 870.4a51.2 51.2 0 1 0 0-102.4 51.2 51.2 0 0 0 0 102.4zM716.8 870.4a51.2 51.2 0 1 0 0-102.4 51.2 51.2 0 0 0 0 102.4z" fill="#333333" p-id="3055"></path><path d="M0 0h1024v1024H0z" fill="#333333" fill-opacity="0" p-id="3056"></path></svg>