<?xml version="1.0" standalone="no"?><!DOCTYPE svg PUBLIC "-//W3C//DTD SVG 1.1//EN" "http://www.w3.org/Graphics/SVG/1.1/DTD/svg11.dtd"><svg t="1590149648052" class="icon" viewBox="0 0 1024 1024" version="1.1" xmlns="http://www.w3.org/2000/svg" p-id="11503" xmlns:xlink="http://www.w3.org/1999/xlink" width="128" height="128"><defs><style type="text/css"></style></defs><path d="M713.6 640c9.813333 0 18.346667-6.613333 20.693333-16l75.733334-298.666667c1.706667-6.4 0.213333-13.226667-3.84-18.346666S795.946667 298.666667 789.333333 298.666667H251.306667l-17.28-69.12A21.226667 21.226667 0 0 0 213.333333 213.333333H128c-11.733333 0-21.333333 9.6-21.333333 21.333334s9.6 21.333333 21.333333 21.333333h68.693333l17.28 69.12 75.733334 298.666667c0.64 2.346667 1.493333 4.48 2.773333 6.4l-34.986667 87.253333c-2.56 6.613333-1.706667 14.08 2.133334 19.84 4.053333 5.76 10.666667 9.386667 17.706666 9.386667h469.333334c11.733333 0 21.333333-9.6 21.333333-21.333334s-9.6-21.333333-21.333333-21.333333H308.906667l25.6-64h379.093333zM262.186667 341.333333h499.84l-64.853334 256H326.826667l-64.64-256z" p-id="11504"></path><path d="M341.333333 832m-42.666666 0a42.666667 42.666667 0 1 0 85.333333 0 42.666667 42.666667 0 1 0-85.333333 0Z" p-id="11505"></path><path d="M682.666667 832m-42.666667 0a42.666667 42.666667 0 1 0 85.333333 0 42.666667 42.666667 0 1 0-85.333333 0Z" p-id="11506"></path></svg>