<?xml version="1.0" standalone="no"?><!DOCTYPE svg PUBLIC "-//W3C//DTD SVG 1.1//EN" "http://www.w3.org/Graphics/SVG/1.1/DTD/svg11.dtd"><svg t="1587819351364" class="icon" viewBox="0 0 1024 1024" version="1.1" xmlns="http://www.w3.org/2000/svg" p-id="45342" xmlns:xlink="http://www.w3.org/1999/xlink" width="128" height="128"><defs><style type="text/css"></style></defs><path d="M683.1 948.3c-7 0-14-2.4-19.8-7.3-12.6-10.9-13.9-30-3-42.5l130-150c10.9-12.6 30-13.9 42.5-3s13.9 30 3 42.5l-130 149.9c-5.9 6.8-14.2 10.4-22.7 10.4z" p-id="45343"></path><path d="M683.1 938.7c-16.7 0-30.1-13.5-30.1-30.1V798c0-38.7 31.4-70.1 70.1-70.1h80c16.7 0 30.1 13.5 30.1 30.1 0 16.5-13.5 30.1-30.1 30.1h-80c-5.5 0-9.9 4.5-9.9 9.9v110.6c0 16.7-13.4 30.1-30.1 30.1zM311.3 818.3c-16.7 0-30.1-13.5-30.1-30.1V426.9c0-16.7 13.5-30.1 30.1-30.1 16.7 0 30.1 13.4 30.1 30.1v361.3c-0.1 16.7-13.5 30.1-30.1 30.1zM793 336.6H231c-16.7 0-30.1-13.4-30.1-30.1 0-16.7 13.5-30.1 30.1-30.1h562c16.7 0 30.1 13.4 30.1 30.1-0.1 16.7-13.5 30.1-30.1 30.1zM632.4 216.2c-16.7 0-30.1-13.4-30.1-30.1v-80.3c0-16.7 13.5-30.1 30.1-30.1 16.7 0 30.1 13.4 30.1 30.1v80.3c0 16.5-13.4 30.1-30.1 30.1zM391.5 216.2c-16.7 0-30.1-13.4-30.1-30.1v-80.3c0-16.7 13.5-30.1 30.1-30.1 16.7 0 30.1 13.4 30.1 30.1v80.3c0 16.5-13.4 30.1-30.1 30.1z" p-id="45344"></path><path d="M573.2 938.7H251c-38.8 0-70.2-31.6-70.2-70.2V186.1c0-38.8 31.6-70.2 70.2-70.2h39.1c16.7 0 30.1 13.4 30.1 30.1s-13.5 30-30.1 30H251c-5.5 0-10.1 4.5-10.1 10.1v682.5c0 5.5 4.5 10.1 10.1 10.1h322.3c16.7 0 30.1 13.5 30.1 30.1s-13.5 29.9-30.2 29.9z m239.9-140.4c-16.7 0-30.1-13.5-30.1-30.1V186.1c0-5.6-4.5-10.1-10.1-10.1h-41.8c-16.7 0-30.1-13.4-30.1-30.1s13.5-30.1 30.1-30.1H773c38.8 0 70.2 31.6 70.2 70.2v582.1c0 16.6-13.6 30.2-30.1 30.2zM531.4 176h-38.8c-16.7 0-30.1-13.4-30.1-30.1s13.5-30.1 30.1-30.1h38.8c16.7 0 30.1 13.4 30.1 30.1S547.9 176 531.4 176z" p-id="45345"></path></svg>