<?xml version="1.0" standalone="no"?><!DOCTYPE svg PUBLIC "-//W3C//DTD SVG 1.1//EN" "http://www.w3.org/Graphics/SVG/1.1/DTD/svg11.dtd"><svg t="1586958958723" class="icon" viewBox="0 0 1024 1024" version="1.1" xmlns="http://www.w3.org/2000/svg" p-id="1250" xmlns:xlink="http://www.w3.org/1999/xlink" width="128" height="128"><defs><style type="text/css"></style></defs><path d="M952.896 919.68l-34.496 34.432c-9.536 9.536-24.96 9.536-34.432 0l-192.64-192.64c-65.792 50.624-147.968 81.088-237.376 81.088C238.528 842.56 64 667.968 64 452.672 64 237.312 238.528 62.72 453.888 62.72c215.36 0 389.888 174.592 389.888 389.888 0 90.752-31.296 174.016-83.264 240.256l192.32 192.32C962.368 894.72 962.368 910.144 952.896 919.68zM453.888 160.192c-161.536 0-292.416 130.944-292.416 292.416s130.944 292.416 292.416 292.416c161.472 0 292.416-130.944 292.416-292.416S615.424 160.192 453.888 160.192zM575.744 501.376 502.656 501.376l0 73.088c0 13.44-10.944 24.384-24.384 24.384L429.504 598.848c-13.44 0-24.384-10.944-24.384-24.384L405.12 501.376 332.032 501.376c-13.44 0-24.384-10.88-24.384-24.384L307.648 428.288c0-13.44 10.88-24.384 24.384-24.384l73.088 0L405.12 330.816c0-13.44 10.88-24.384 24.384-24.384l48.768 0c13.44 0 24.384 10.88 24.384 24.384l0 73.088 73.088 0c13.44 0 24.384 10.944 24.384 24.384l0 48.768C600.128 490.496 589.184 501.376 575.744 501.376z" p-id="1251"></path></svg>